<svg width="32" height="19" viewBox="0 0 32 19" fill="none" xmlns="http://www.w3.org/2000/svg">
    <path fill="#44A8B3" d="M8 6.33333C9.06667 2.11111 11.7333 0 16 0C22.4 0 23.2 4.75 26.4 5.54167C28.5333 6.06944 30.4 5.27778 32 3.16667C30.9333 7.38889 28.2667 9.5 24 9.5C17.6 9.5 16.8 4.75 13.6 3.95833C11.4667 3.43056 9.6 4.22222 8 6.33333ZM0 15.8333C1.06667 11.6111 3.73333 9.5 8 9.5C14.4 9.5 15.2 14.25 18.4 15.0417C20.5333 15.5694 22.4 14.7778 24 12.6667C22.9333 16.8889 20.2667 19 16 19C9.6 19 8.8 14.25 5.6 13.4583C3.46667 12.9306 1.6 13.7222 0 15.8333Z"/>
</svg>
